solid 
facet normal -0.102380954 -0.94352347 -0.3150898
 outer loop
  vertex 0 -1 0
  vertex -0.42532268 -0.8506542 -0.3090114
  vertex 0.16245556 -0.8506544 -0.49999526
 endloop
endfacet
facet normal -0.700224 -0.6616988 -0.26803172
 outer loop
  vertex -0.7236073 -0.44721952 -0.5257253
  vertex -0.42532268 -0.8506542 -0.3090114
  vertex -0.85064787 -0.5257359 0
 endloop
endfacet
facet normal 0.2680342 -0.9435229 -0.19473648
 outer loop
  vertex 0 -1 0
  vertex 0.16245556 -0.8506544 -0.49999526
  vertex 0.5257298 -0.8506517 0
 endloop
endfacet
facet normal 0.2680342 -0.9435229 0.1947365
 outer loop
  vertex 0 -1 0
  vertex 0.5257298 -0.8506517 0
  vertex 0.16245556 -0.8506544 0.49999526
 endloop
endfacet
facet normal -0.102380954 -0.94352347 0.3150898
 outer loop
  vertex 0 -1 0
  vertex 0.16245556 -0.8506544 0.49999526
  vertex -0.42532268 -0.8506542 0.3090114
 endloop
endfacet
facet normal -0.90498906 -0.3303846 -0.26803148
 outer loop
  vertex -0.7236073 -0.44721952 -0.5257253
  vertex -0.85064787 -0.5257359 0
  vertex -0.95105785 0 -0.30901262
 endloop
endfacet
facet normal -0.0247466 -0.3303861 -0.9435213
 outer loop
  vertex 0.27638802 -0.44721985 -0.85064924
  vertex -0.26286882 -0.52573764 -0.80901164
  vertex 0 0 -0.99999994
 endloop
endfacet
facet normal 0.8896974 -0.33038476 -0.31509465
 outer loop
  vertex 0.8944262 -0.44721562 0
  vertex 0.6881894 -0.5257362 -0.49999693
  vertex 0.95105785 0 -0.30901262
 endloop
endfacet
facet normal 0.5746018 -0.33038756 0.7487835
 outer loop
  vertex 0.27638802 -0.44721985 0.85064924
  vertex 0.6881894 -0.5257362 0.49999693
  vertex 0.5877856 0 0.8090167
 endloop
endfacet
facet normal -0.534576 -0.33038652 0.7778645
 outer loop
  vertex -0.7236073 -0.44721952 0.5257253
  vertex -0.26286882 -0.52573764 0.80901164
  vertex -0.5877856 0 0.8090167
 endloop
endfacet
facet normal -0.8026091 -0.12562728 -0.5831265
 outer loop
  vertex -0.7236073 -0.44721952 -0.5257253
  vertex -0.95105785 0 -0.30901262
  vertex -0.5877856 0 -0.8090167
 endloop
endfacet
facet normal 0.30656895 -0.12562865 -0.94352156
 outer loop
  vertex 0.27638802 -0.44721985 -0.85064924
  vertex 0 0 -0.99999994
  vertex 0.5877856 0 -0.8090167
 endloop
endfacet
facet normal 0.9920774 -0.12562834 0
 outer loop
  vertex 0.8944262 -0.44721562 0
  vertex 0.95105785 0 -0.30901262
  vertex 0.95105785 0 0.30901262
 endloop
endfacet
facet normal 0.30656895 -0.12562867 0.94352156
 outer loop
  vertex 0.27638802 -0.44721985 0.85064924
  vertex 0.5877856 0 0.8090167
  vertex 0 0 0.99999994
 endloop
endfacet
facet normal -0.8026091 -0.12562731 0.5831265
 outer loop
  vertex -0.7236073 -0.44721952 0.5257253
  vertex -0.5877856 0 0.8090167
  vertex -0.95105785 0 0.30901262
 endloop
endfacet
facet normal -0.4089461 0.66169846 -0.6284251
 outer loop
  vertex -0.27638802 0.44721985 -0.85064924
  vertex -0.6881894 0.5257362 -0.49999693
  vertex -0.16245556 0.85065436 -0.49999526
 endloop
endfacet
facet normal 0.47129968 0.66169864 -0.58312225
 outer loop
  vertex 0.7236073 0.44721952 -0.5257253
  vertex 0.26286882 0.52573764 -0.80901164
  vertex 0.42532268 0.8506542 -0.3090114
 endloop
endfacet
facet normal 0.7002239 0.6616988 0.26803172
 outer loop
  vertex 0.7236073 0.44721952 0.5257253
  vertex 0.85064787 0.5257359 0
  vertex 0.42532268 0.8506542 0.3090114
 endloop
endfacet
facet normal -0.038530406 0.66169894 0.74877894
 outer loop
  vertex -0.27638802 0.44721985 0.85064924
  vertex 0.26286882 0.52573764 0.80901164
  vertex -0.16245556 0.85065436 0.49999526
 endloop
endfacet
facet normal -0.7240422 0.66169536 0.1947361
 outer loop
  vertex -0.8944262 0.44721562 0
  vertex -0.6881894 0.5257362 0.49999693
  vertex -0.5257298 0.8506517 0
 endloop
endfacet
facet normal -0.26803416 0.94352275 0.19473659
 outer loop
  vertex -0.5257298 0.8506517 0
  vertex -0.16245556 0.85065436 0.49999526
  vertex 0 1 0
 endloop
endfacet
facet normal -0.49111935 0.7946575 0.35682112
 outer loop
  vertex -0.5257298 0.8506517 0
  vertex -0.6881894 0.5257362 0.49999693
  vertex -0.16245556 0.85065436 0.49999526
 endloop
endfacet
facet normal -0.40894613 0.6616985 0.6284251
 outer loop
  vertex -0.6881894 0.5257362 0.49999693
  vertex -0.27638802 0.44721985 0.85064924
  vertex -0.16245556 0.85065436 0.49999526
 endloop
endfacet
facet normal 0.10238089 0.94352347 0.3150899
 outer loop
  vertex -0.16245556 0.85065436 0.49999526
  vertex 0.42532268 0.8506542 0.3090114
  vertex 0 1 0
 endloop
endfacet
facet normal 0.18759419 0.7946576 0.5773454
 outer loop
  vertex -0.16245556 0.85065436 0.49999526
  vertex 0.26286882 0.52573764 0.80901164
  vertex 0.42532268 0.8506542 0.3090114
 endloop
endfacet
facet normal 0.47129968 0.66169864 0.58312225
 outer loop
  vertex 0.26286882 0.52573764 0.80901164
  vertex 0.7236073 0.44721952 0.5257253
  vertex 0.42532268 0.8506542 0.3090114
 endloop
endfacet
facet normal 0.33130455 0.9435238 -0
 outer loop
  vertex 0.42532268 0.8506542 0.3090114
  vertex 0.42532268 0.8506542 -0.3090114
  vertex 0 1 0
 endloop
endfacet
facet normal 0.60706055 0.7946556 0
 outer loop
  vertex 0.42532268 0.8506542 0.3090114
  vertex 0.85064787 0.5257359 0
  vertex 0.42532268 0.8506542 -0.3090114
 endloop
endfacet
facet normal 0.700224 0.6616988 -0.26803172
 outer loop
  vertex 0.85064787 0.5257359 0
  vertex 0.7236073 0.44721952 -0.5257253
  vertex 0.42532268 0.8506542 -0.3090114
 endloop
endfacet
facet normal 0.10238089 0.94352347 -0.31508988
 outer loop
  vertex 0.42532268 0.8506542 -0.3090114
  vertex -0.16245556 0.85065436 -0.49999526
  vertex 0 1 0
 endloop
endfacet
facet normal 0.18759419 0.7946576 -0.5773454
 outer loop
  vertex 0.42532268 0.8506542 -0.3090114
  vertex 0.26286882 0.52573764 -0.80901164
  vertex -0.16245556 0.85065436 -0.49999526
 endloop
endfacet
facet normal -0.038530406 0.661699 -0.748779
 outer loop
  vertex 0.26286882 0.52573764 -0.80901164
  vertex -0.27638802 0.44721985 -0.85064924
  vertex -0.16245556 0.85065436 -0.49999526
 endloop
endfacet
facet normal -0.26803416 0.94352275 -0.19473659
 outer loop
  vertex -0.16245556 0.85065436 -0.49999526
  vertex -0.5257298 0.8506517 0
  vertex 0 1 0
 endloop
endfacet
facet normal -0.49111935 0.7946575 -0.35682112
 outer loop
  vertex -0.16245556 0.85065436 -0.49999526
  vertex -0.6881894 0.5257362 -0.49999693
  vertex -0.5257298 0.8506517 0
 endloop
endfacet
facet normal -0.7240422 0.66169536 -0.19473608
 outer loop
  vertex -0.6881894 0.5257362 -0.49999693
  vertex -0.8944262 0.44721562 0
  vertex -0.5257298 0.8506517 0
 endloop
endfacet
facet normal -0.8896974 0.33038476 0.31509465
 outer loop
  vertex -0.95105785 0 0.30901262
  vertex -0.6881894 0.5257362 0.49999693
  vertex -0.8944262 0.44721562 0
 endloop
endfacet
facet normal -0.79465556 0.18759502 0.57734793
 outer loop
  vertex -0.95105785 0 0.30901262
  vertex -0.5877856 0 0.8090167
  vertex -0.6881894 0.5257362 0.49999693
 endloop
endfacet
facet normal -0.5746019 0.33038756 0.7487835
 outer loop
  vertex -0.5877856 0 0.8090167
  vertex -0.27638802 0.44721985 0.85064924
  vertex -0.6881894 0.5257362 0.49999693
 endloop
endfacet
facet normal 0.0247466 0.3303861 0.9435213
 outer loop
  vertex 0 0 0.99999994
  vertex 0.26286882 0.52573764 0.80901164
  vertex -0.27638802 0.44721985 0.85064924
 endloop
endfacet
facet normal 0.30353087 0.18759738 0.9341714
 outer loop
  vertex 0 0 0.99999994
  vertex 0.5877856 0 0.8090167
  vertex 0.26286882 0.52573764 0.80901164
 endloop
endfacet
facet normal 0.534576 0.33038655 0.7778645
 outer loop
  vertex 0.5877856 0 0.8090167
  vertex 0.7236073 0.44721952 0.5257253
  vertex 0.26286882 0.52573764 0.80901164
 endloop
endfacet
facet normal 0.90498906 0.3303846 0.26803148
 outer loop
  vertex 0.95105785 0 0.30901262
  vertex 0.85064787 0.5257359 0
  vertex 0.7236073 0.44721952 0.5257253
 endloop
endfacet
facet normal 0.9822458 0.18759853 -0
 outer loop
  vertex 0.95105785 0 0.30901262
  vertex 0.95105785 0 -0.30901262
  vertex 0.85064787 0.5257359 0
 endloop
endfacet
facet normal 0.90498906 0.33038458 -0.26803145
 outer loop
  vertex 0.95105785 0 -0.30901262
  vertex 0.7236073 0.44721952 -0.5257253
  vertex 0.85064787 0.5257359 0
 endloop
endfacet
facet normal 0.534576 0.33038652 -0.7778645
 outer loop
  vertex 0.5877856 0 -0.8090167
  vertex 0.26286882 0.52573764 -0.80901164
  vertex 0.7236073 0.44721952 -0.5257253
 endloop
endfacet
facet normal 0.30353087 0.18759738 -0.9341714
 outer loop
  vertex 0.5877856 0 -0.8090167
  vertex 0 0 -0.99999994
  vertex 0.26286882 0.52573764 -0.80901164
 endloop
endfacet
facet normal 0.024746602 0.33038613 -0.9435213
 outer loop
  vertex 0 0 -0.99999994
  vertex -0.27638802 0.44721985 -0.85064924
  vertex 0.26286882 0.52573764 -0.80901164
 endloop
endfacet
facet normal -0.5746018 0.33038756 -0.7487835
 outer loop
  vertex -0.5877856 0 -0.8090167
  vertex -0.6881894 0.5257362 -0.49999693
  vertex -0.27638802 0.44721985 -0.85064924
 endloop
endfacet
facet normal -0.7946556 0.18759502 -0.577348
 outer loop
  vertex -0.5877856 0 -0.8090167
  vertex -0.95105785 0 -0.30901262
  vertex -0.6881894 0.5257362 -0.49999693
 endloop
endfacet
facet normal -0.8896974 0.33038476 -0.31509462
 outer loop
  vertex -0.95105785 0 -0.30901262
  vertex -0.8944262 0.44721562 0
  vertex -0.6881894 0.5257362 -0.49999693
 endloop
endfacet
facet normal -0.30656895 0.12562865 0.94352156
 outer loop
  vertex -0.5877856 0 0.8090167
  vertex 0 0 0.99999994
  vertex -0.27638802 0.44721985 0.85064924
 endloop
endfacet
facet normal -0.30353087 -0.1875974 0.9341714
 outer loop
  vertex -0.5877856 0 0.8090167
  vertex -0.26286882 -0.52573764 0.80901164
  vertex 0 0 0.99999994
 endloop
endfacet
facet normal -0.024746602 -0.33038613 0.9435213
 outer loop
  vertex -0.26286882 -0.52573764 0.80901164
  vertex 0.27638802 -0.44721985 0.85064924
  vertex 0 0 0.99999994
 endloop
endfacet
facet normal 0.8026091 0.12562728 0.5831265
 outer loop
  vertex 0.5877856 0 0.8090167
  vertex 0.95105785 0 0.30901262
  vertex 0.7236073 0.44721952 0.5257253
 endloop
endfacet
facet normal 0.7946556 -0.18759504 0.57734793
 outer loop
  vertex 0.5877856 0 0.8090167
  vertex 0.6881894 -0.5257362 0.49999693
  vertex 0.95105785 0 0.30901262
 endloop
endfacet
facet normal 0.8896974 -0.33038476 0.31509462
 outer loop
  vertex 0.6881894 -0.5257362 0.49999693
  vertex 0.8944262 -0.44721562 0
  vertex 0.95105785 0 0.30901262
 endloop
endfacet
facet normal 0.8026091 0.12562731 -0.5831265
 outer loop
  vertex 0.95105785 0 -0.30901262
  vertex 0.5877856 0 -0.8090167
  vertex 0.7236073 0.44721952 -0.5257253
 endloop
endfacet
facet normal 0.7946556 -0.18759504 -0.57734793
 outer loop
  vertex 0.95105785 0 -0.30901262
  vertex 0.6881894 -0.5257362 -0.49999693
  vertex 0.5877856 0 -0.8090167
 endloop
endfacet
facet normal 0.5746019 -0.33038756 -0.7487835
 outer loop
  vertex 0.6881894 -0.5257362 -0.49999693
  vertex 0.27638802 -0.44721985 -0.85064924
  vertex 0.5877856 0 -0.8090167
 endloop
endfacet
facet normal -0.30656895 0.12562867 -0.94352156
 outer loop
  vertex 0 0 -0.99999994
  vertex -0.5877856 0 -0.8090167
  vertex -0.27638802 0.44721985 -0.85064924
 endloop
endfacet
facet normal -0.30353087 -0.1875974 -0.9341714
 outer loop
  vertex 0 0 -0.99999994
  vertex -0.26286882 -0.52573764 -0.80901164
  vertex -0.5877856 0 -0.8090167
 endloop
endfacet
facet normal -0.534576 -0.33038655 -0.7778645
 outer loop
  vertex -0.26286882 -0.52573764 -0.80901164
  vertex -0.7236073 -0.44721952 -0.5257253
  vertex -0.5877856 0 -0.8090167
 endloop
endfacet
facet normal -0.9920774 0.12562834 0
 outer loop
  vertex -0.95105785 0 -0.30901262
  vertex -0.95105785 0 0.30901262
  vertex -0.8944262 0.44721562 0
 endloop
endfacet
facet normal -0.9822458 -0.18759853 0
 outer loop
  vertex -0.95105785 0 -0.30901262
  vertex -0.85064787 -0.5257359 0
  vertex -0.95105785 0 0.30901262
 endloop
endfacet
facet normal -0.90498906 -0.33038458 0.26803145
 outer loop
  vertex -0.85064787 -0.5257359 0
  vertex -0.7236073 -0.44721952 0.5257253
  vertex -0.95105785 0 0.30901262
 endloop
endfacet
facet normal -0.47129968 -0.66169864 0.58312225
 outer loop
  vertex -0.42532268 -0.8506542 0.3090114
  vertex -0.26286882 -0.52573764 0.80901164
  vertex -0.7236073 -0.44721952 0.5257253
 endloop
endfacet
facet normal -0.1875943 -0.7946576 0.5773453
 outer loop
  vertex -0.42532268 -0.8506542 0.3090114
  vertex 0.16245556 -0.8506544 0.49999526
  vertex -0.26286882 -0.52573764 0.80901164
 endloop
endfacet
facet normal 0.038530394 -0.66169894 0.748779
 outer loop
  vertex 0.16245556 -0.8506544 0.49999526
  vertex 0.27638802 -0.44721985 0.85064924
  vertex -0.26286882 -0.52573764 0.80901164
 endloop
endfacet
facet normal 0.40894616 -0.66169846 0.6284252
 outer loop
  vertex 0.16245556 -0.8506544 0.49999526
  vertex 0.6881894 -0.5257362 0.49999693
  vertex 0.27638802 -0.44721985 0.85064924
 endloop
endfacet
facet normal 0.4911194 -0.79465747 0.35682103
 outer loop
  vertex 0.16245556 -0.8506544 0.49999526
  vertex 0.5257298 -0.8506517 0
  vertex 0.6881894 -0.5257362 0.49999693
 endloop
endfacet
facet normal 0.7240422 -0.66169536 0.19473608
 outer loop
  vertex 0.5257298 -0.8506517 0
  vertex 0.8944262 -0.44721562 0
  vertex 0.6881894 -0.5257362 0.49999693
 endloop
endfacet
facet normal 0.7240422 -0.66169536 -0.1947361
 outer loop
  vertex 0.5257298 -0.8506517 0
  vertex 0.6881894 -0.5257362 -0.49999693
  vertex 0.8944262 -0.44721562 0
 endloop
endfacet
facet normal 0.49111944 -0.79465747 -0.3568211
 outer loop
  vertex 0.5257298 -0.8506517 0
  vertex 0.16245556 -0.8506544 -0.49999526
  vertex 0.6881894 -0.5257362 -0.49999693
 endloop
endfacet
facet normal 0.40894616 -0.66169846 -0.6284252
 outer loop
  vertex 0.16245556 -0.8506544 -0.49999526
  vertex 0.27638802 -0.44721985 -0.85064924
  vertex 0.6881894 -0.5257362 -0.49999693
 endloop
endfacet
facet normal -0.700224 -0.6616988 0.26803172
 outer loop
  vertex -0.85064787 -0.5257359 0
  vertex -0.42532268 -0.8506542 0.3090114
  vertex -0.7236073 -0.44721952 0.5257253
 endloop
endfacet
facet normal -0.60706055 -0.7946556 -0
 outer loop
  vertex -0.85064787 -0.5257359 0
  vertex -0.42532268 -0.8506542 -0.3090114
  vertex -0.42532268 -0.8506542 0.3090114
 endloop
endfacet
facet normal -0.33130455 -0.9435238 0
 outer loop
  vertex -0.42532268 -0.8506542 -0.3090114
  vertex 0 -1 0
  vertex -0.42532268 -0.8506542 0.3090114
 endloop
endfacet
facet normal 0.03853039 -0.6616988 -0.748779
 outer loop
  vertex 0.16245556 -0.8506544 -0.49999526
  vertex -0.26286882 -0.52573764 -0.80901164
  vertex 0.27638802 -0.44721985 -0.85064924
 endloop
endfacet
facet normal -0.18759428 -0.7946576 -0.5773454
 outer loop
  vertex 0.16245556 -0.8506544 -0.49999526
  vertex -0.42532268 -0.8506542 -0.3090114
  vertex -0.26286882 -0.52573764 -0.80901164
 endloop
endfacet
facet normal -0.47129968 -0.66169864 -0.58312225
 outer loop
  vertex -0.42532268 -0.8506542 -0.3090114
  vertex -0.7236073 -0.44721952 -0.5257253
  vertex -0.26286882 -0.52573764 -0.80901164
 endloop
endfacet
endsolid 
